# xmcd
#
# Track frame offsets: 
#        150
#        14475
#        29560
#        46107
#        60267
#        74407
#        87740
#        105155
#        121207
#        134230
#        147972
#
# Disc length: 2181 seconds
#
# Revision: 3
# Processed by: cddbd v1.5.2PL0 Copyright (c) Steve Scherf et al.
# Submitted via: ExactAudioCopy v1.0b1
#
DISCID=9b08830b
DTITLE=Chet Atkins with Tommy Emmanuel - The Day Finger Pickers Took O
DTITLE=ver The World
DYEAR=1997
DGENRE=Country
TTITLE0=Borsalino
TTITLE1=To "B" or Not to "B"
TTITLE2=The Day Finger Pickers Took Over the World
TTITLE3=Tip Toe Through the Bluegrass
TTITLE4=News from the Outback
TTITLE5=Ode to Mel Bay
TTITLE6=Dixie McGuire
TTITLE7=Saltwater
TTITLE8=Mr. Guitar
TTITLE9=Road to Gundaghi - Waltzing Matilda
TTITLE10=Smokey Mountain Lullaby
EXTD=(c)(p) 1997 Sony Music Entertainment, Inc. (Columbia 486871 2)
EXTT0=
EXTT1=
EXTT2=
EXTT3=
EXTT4=
EXTT5=
EXTT6=
EXTT7=
EXTT8=
EXTT9=
EXTT10=
PLAYORDER=
